<?xml version="1.0" standalone="no"?>
<!DOCTYPE svg PUBLIC "-//W3C//DTD SVG 20010904//EN"
 "http://www.w3.org/TR/2001/REC-SVG-20010904/DTD/svg10.dtd">
<svg version="1.0" xmlns="http://www.w3.org/2000/svg"
 width="2000.000000pt" height="2000.000000pt" viewBox="0 0 2000.000000 2000.000000"
 preserveAspectRatio="xMidYMid meet">

<g transform="translate(0.000000,2000.000000) scale(0.100000,-0.100000)"
fill="#000000" stroke="none">
<path d="M5645 17495 c-155 -64 -162 -65 -242 -48 -89 19 -464 12 -566 -11
-85 -19 -169 -64 -241 -128 -95 -84 -89 -48 -90 -583 -1 -462 -1 -471 -23
-510 -22 -41 -79 -100 -124 -127 -84 -52 -259 -63 -405 -27 -96 24 -72 29
-251 -50 -51 -22 -184 -66 -295 -97 -335 -93 -404 -137 -743 -478 -132 -133
-285 -278 -340 -323 -55 -44 -116 -98 -136 -119 -33 -36 -306 -465 -409 -643
-56 -96 -89 -133 -245 -264 -136 -114 -221 -170 -243 -162 -21 8 -259 43 -337
50 -38 3 -86 8 -106 11 l-37 5 2 -313 1 -313 -57 -105 c-31 -58 -63 -129 -72
-159 -20 -69 -20 -173 0 -230 8 -24 25 -96 38 -160 18 -91 34 -138 73 -216 58
-115 78 -190 69 -261 -16 -130 -16 -165 -4 -244 14 -81 15 -85 39 -83 274 27
387 50 577 119 132 48 287 62 488 45 l142 -12 68 36 69 35 244 -25 c134 -14
275 -32 315 -41 185 -41 254 -55 296 -59 99 -11 139 -18 238 -42 79 -20 106
-23 111 -14 4 7 12 11 17 10 5 -2 29 3 53 10 61 18 75 10 67 -39 -9 -56 -15
-50 279 -261 100 -71 121 -94 165 -177 32 -61 39 -68 82 -81 26 -8 68 -31 95
-52 26 -21 78 -60 114 -86 36 -27 81 -68 100 -93 19 -25 41 -51 49 -57 20 -17
72 -30 141 -37 83 -8 142 -23 201 -50 63 -29 51 -40 -42 -34 -33 1 -60 0 -60
-4 0 -8 47 -13 80 -10 53 6 142 2 158 -7 13 -7 21 -25 24 -54 8 -65 49 -113
105 -122 38 -5 48 -13 83 -60 26 -35 50 -57 68 -61 15 -4 52 -13 82 -21 30 -7
98 -16 151 -20 l96 -6 6 62 c4 34 10 124 13 201 7 129 6 142 -12 163 -37 43
-46 67 -33 83 8 10 22 13 38 9 26 -5 26 -5 23 42 -2 27 -11 56 -19 65 -12 14
-13 26 -4 70 6 29 12 112 13 183 3 137 3 136 -53 248 -25 50 -24 61 10 110 37
53 80 93 108 100 30 7 115 -10 125 -26 6 -9 10 -9 17 3 13 20 73 14 123 -11
23 -12 66 -46 98 -77 62 -61 102 -91 276 -206 138 -92 164 -105 211 -110 53
-6 121 -37 219 -101 114 -74 142 -88 170 -81 36 9 105 60 156 114 44 47 55 72
76 167 8 37 11 40 40 39 20 -1 59 -21 110 -58 96 -67 161 -87 240 -72 35 7 39
12 87 105 25 48 56 98 69 110 l23 21 74 -63 c41 -35 106 -87 144 -116 39 -30
117 -102 175 -160 139 -141 375 -362 433 -406 37 -28 48 -45 61 -87 18 -63 64
-110 176 -185 91 -61 167 -100 285 -146 50 -20 126 -51 169 -71 44 -19 83 -33
88 -30 17 11 7 59 -24 113 -29 50 -33 64 -31 126 1 38 7 88 14 112 10 38 15
43 33 37 34 -11 61 -35 100 -89 99 -137 164 -215 191 -229 17 -9 57 -23 89
-31 95 -25 134 -52 146 -99 26 -102 39 -125 79 -136 21 -5 58 -26 82 -45 138
-111 210 -161 353 -250 88 -54 228 -144 310 -200 83 -56 214 -139 290 -185 96
-57 161 -105 209 -152 52 -51 75 -67 89 -62 26 8 44 41 52 91 3 24 13 64 22
90 19 54 84 154 98 150 6 -2 16 -32 23 -68 61 -281 72 -300 231 -402 124 -80
236 -171 351 -290 59 -59 112 -107 119 -107 24 0 -124 162 -218 240 -30 24
-77 64 -104 88 -27 23 -87 64 -134 90 -145 81 -162 108 -212 352 -12 58 -23
112 -26 120 -2 9 16 47 41 84 56 86 57 110 6 195 -42 71 -71 155 -71 208 0 27
6 37 38 56 54 34 141 73 274 122 65 24 138 58 162 75 27 20 60 33 87 36 98 11
109 14 109 34 0 10 -24 65 -54 122 -56 105 -163 379 -186 478 -7 30 -12 88
-10 130 2 41 3 107 4 145 l1 70 -52 26 c-61 29 -182 63 -209 57 -11 -2 19 -14
66 -27 47 -13 105 -34 130 -45 44 -21 45 -22 43 -66 -9 -276 -10 -270 23 -365
71 -202 137 -364 180 -438 24 -43 42 -82 39 -87 -4 -6 -31 -10 -62 -10 -47 0
-64 -5 -109 -35 -59 -39 -120 -68 -209 -97 -63 -21 -221 -94 -266 -124 -26
-17 -27 -16 -55 9 -16 15 -33 27 -39 28 -5 0 -32 4 -60 8 -43 8 -65 4 -157
-25 l-107 -33 -76 19 c-41 10 -85 24 -97 31 -12 6 -61 14 -110 17 -101 6 -96
-3 -73 117 11 53 15 132 14 233 -1 108 3 157 11 167 7 9 49 37 94 64 91 56
118 82 170 163 19 31 41 58 47 60 7 2 10 9 6 15 -7 11 -150 95 -234 137 -29
14 -60 38 -70 54 -9 15 -30 42 -45 60 -38 44 -85 139 -93 188 -15 87 -18 88
-97 48 -44 -23 -61 -26 -111 -21 -61 5 -107 34 -107 65 0 12 -2 12 -17 1 -9
-8 -14 -9 -10 -2 10 15 -23 25 -71 21 -34 -3 -37 -1 -37 22 0 19 6 26 23 28
l24 4 -7 216 c-6 166 -11 221 -21 232 -11 11 -51 16 -172 21 -199 7 -252 25
-252 85 0 18 -7 23 -42 29 -56 9 -86 26 -125 67 -28 30 -63 108 -63 143 0 8
-5 36 -11 64 -10 46 -13 50 -57 69 -54 23 -92 32 -144 37 -50 5 -110 33 -197
91 -224 151 -271 171 -385 160 -39 -3 -86 -9 -103 -12 -44 -8 -43 10 1 101 40
82 79 122 236 237 140 103 291 239 306 276 6 15 15 56 18 91 9 80 28 118 108
216 124 153 136 169 147 205 27 91 7 217 -50 312 -47 77 -96 126 -154 150 -34
14 -347 68 -397 68 -9 0 -52 -30 -95 -66 -133 -112 -149 -116 -333 -89 -121
19 -156 14 -288 -41 -215 -89 -227 -97 -389 -281 -69 -78 -137 -150 -150 -158
-19 -13 -65 -17 -224 -20 -184 -4 -200 -3 -195 12 89 230 119 456 72 528 -8
12 -51 43 -94 68 -61 35 -101 70 -173 148 -68 73 -109 109 -151 130 -45 23
-69 45 -116 106 -57 75 -115 140 -269 305 -45 47 -73 85 -73 99 0 33 118 263
151 295 18 17 40 27 58 27 28 0 29 2 24 31 -13 70 -77 263 -148 451 -93 246
-130 354 -122 361 17 17 61 -49 102 -151 31 -78 40 -95 29 -50 -18 72 -59 154
-100 197 -24 26 -44 54 -44 61 0 8 -21 43 -46 77 -25 35 -70 117 -100 184 -30
66 -83 173 -119 236 -35 63 -72 138 -83 165 -36 88 -112 245 -120 245 -4 0
-56 -20 -117 -45z m179 -137 c36 -81 99 -214 139 -295 41 -82 88 -182 107
-225 18 -42 43 -87 55 -100 45 -49 74 -105 94 -183 26 -105 47 -167 120 -358
68 -179 126 -354 136 -409 6 -32 5 -38 -10 -38 -33 0 -90 -75 -155 -201 -50
-99 -62 -130 -56 -152 3 -15 68 -93 144 -174 75 -82 156 -173 179 -204 58 -79
99 -117 150 -141 28 -13 77 -56 136 -120 85 -92 107 -109 193 -158 88 -50 94
-61 94 -161 0 -129 -23 -233 -89 -398 l-22 -54 223 8 c123 4 230 11 239 15 15
9 127 121 169 170 12 14 54 59 95 100 78 80 156 126 320 188 116 45 122 45
241 27 183 -29 217 -19 376 111 l58 47 177 -28 c253 -40 277 -54 359 -215 38
-72 39 -79 39 -175 0 -97 -1 -101 -34 -150 -19 -27 -56 -76 -83 -107 -105
-123 -131 -175 -142 -286 -3 -29 -11 -61 -19 -72 -26 -37 -173 -163 -305 -261
-182 -137 -209 -168 -257 -304 l-21 -60 -54 -13 c-30 -7 -136 -17 -235 -21
-99 -4 -189 -12 -200 -16 -41 -17 -186 -118 -205 -143 -28 -35 -35 -69 -20
-98 18 -32 98 -69 189 -88 85 -17 105 -33 189 -146 30 -41 95 -116 144 -167
60 -62 87 -96 82 -105 -51 -85 -217 -265 -243 -263 -10 0 -54 27 -99 58 -91
63 -179 113 -262 148 -30 13 -95 52 -143 87 -103 74 -106 75 -217 102 -46 12
-92 26 -102 31 -39 21 -70 246 -48 352 13 63 66 156 126 220 48 50 74 96 74
129 -1 54 -31 66 -192 79 -73 5 -160 14 -193 19 -99 16 -180 13 -197 -7 -24
-27 -47 -77 -73 -156 -49 -151 -98 -233 -168 -280 -28 -20 -87 -62 -129 -94
-42 -32 -111 -79 -152 -105 -54 -33 -84 -60 -105 -93 -35 -56 -71 -187 -64
-233 3 -19 30 -70 59 -115 30 -44 54 -89 54 -98 0 -12 -34 -37 -102 -76 -57
-32 -106 -60 -111 -61 -4 -2 -31 19 -58 47 -70 69 -115 88 -229 98 -183 14
-194 10 -262 -87 -48 -68 -48 -98 -2 -190 l37 -71 -8 -145 c-4 -80 -11 -159
-16 -176 -6 -24 -5 -36 6 -48 8 -9 15 -33 15 -53 0 -29 -5 -39 -30 -54 -38
-22 -39 -54 -4 -96 l26 -31 -7 -181 c-5 -117 -11 -183 -19 -187 -19 -13 -200
15 -273 43 -15 5 -49 32 -74 59 -36 37 -56 49 -88 55 -58 10 -87 44 -96 112
-7 59 -15 66 -86 77 -19 4 -56 19 -82 36 -55 34 -90 44 -217 60 -108 14 -130
25 -165 80 -34 54 -279 239 -316 240 -28 0 -56 31 -100 110 -47 83 -48 84
-209 194 -63 43 -134 92 -157 108 -43 29 -48 42 -55 123 -3 29 -5 30 -50 28
-26 0 -67 -9 -91 -18 -43 -16 -46 -16 -148 13 -57 17 -137 33 -178 37 -83 7
-201 28 -276 49 -93 26 -162 35 -516 67 l-126 11 -67 -37 -66 -37 -89 12 c-55
8 -151 11 -248 8 l-158 -5 -151 -51 c-82 -27 -195 -59 -250 -71 -137 -28 -284
-45 -295 -34 -19 19 -32 184 -19 240 25 112 12 180 -64 331 -39 78 -57 128
-66 182 -6 41 -23 118 -36 170 -13 52 -24 114 -24 138 0 61 41 176 100 280
l50 88 0 301 0 301 47 -5 c27 -3 95 -11 153 -19 285 -39 272 -39 316 -16 49
25 224 164 317 251 62 59 88 96 192 271 21 36 77 126 125 200 48 74 106 168
129 209 56 95 94 136 216 234 55 45 204 185 331 312 128 128 269 260 314 294
101 76 234 140 365 175 231 63 286 81 402 134 l122 55 85 -22 c95 -24 223 -28
308 -10 97 21 177 74 230 152 47 70 51 129 43 575 -8 478 -11 462 89 543 78
63 164 104 252 121 78 14 446 17 560 4 77 -9 103 -3 244 62 36 17 68 27 72 24
4 -4 36 -73 72 -154z m1321 -4227 c50 -5 125 -13 167 -16 100 -9 126 -26 109
-76 -6 -19 -42 -71 -80 -117 -71 -85 -107 -159 -118 -240 -3 -24 -12 -46 -19
-49 -8 -3 -73 12 -145 33 -129 37 -133 37 -198 25 -136 -27 -137 -27 -155 9
-15 30 -14 34 3 59 33 47 71 131 112 244 24 67 48 120 62 131 24 20 57 20 262
-3z m1673 -155 c26 -13 104 -62 174 -109 125 -85 143 -93 267 -116 86 -17 133
-40 141 -71 4 -14 13 -54 20 -90 6 -35 18 -78 27 -95 23 -46 82 -94 138 -111
38 -12 57 -25 74 -51 35 -54 75 -65 251 -72 85 -3 161 -10 168 -14 9 -6 12
-59 12 -210 l0 -202 -26 -24 c-34 -33 -29 -65 11 -69 57 -4 109 -24 147 -55
54 -43 142 -50 203 -17 54 29 71 23 79 -32 4 -24 20 -68 36 -98 16 -30 41 -78
56 -106 25 -47 35 -55 152 -120 143 -79 172 -99 172 -121 0 -21 -61 -111 -97
-144 -15 -14 -63 -47 -105 -73 -42 -26 -82 -54 -89 -62 -9 -11 -13 -67 -14
-192 -1 -129 -6 -199 -19 -256 -22 -95 -21 -96 83 -96 54 0 95 -7 150 -26 113
-39 161 -41 261 -9 99 32 159 33 221 6 44 -20 69 -52 69 -89 0 -45 34 -139 70
-194 22 -34 40 -73 40 -87 0 -30 -68 -138 -128 -204 -52 -57 -88 -131 -107
-223 -8 -37 -18 -71 -23 -76 -6 -6 -35 13 -78 52 -80 72 -113 96 -254 180 -57
34 -190 119 -295 189 -105 70 -247 161 -315 201 -69 41 -167 107 -218 147 -51
41 -120 88 -153 104 -66 33 -66 34 -83 117 -15 77 -42 94 -212 141 -44 12 -90
61 -197 213 -59 84 -105 120 -154 122 l-37 1 -12 -65 c-22 -113 -18 -167 18
-237 17 -34 29 -66 25 -69 -4 -4 -51 13 -105 38 -53 25 -132 60 -175 78 -83
35 -232 120 -310 177 -44 33 -71 74 -92 143 -9 27 -14 33 -70 75 -43 31 -214
194 -410 389 -66 66 -158 148 -205 184 -47 35 -98 76 -115 91 -42 38 -81 61
-104 61 -26 0 -62 -45 -112 -140 -33 -64 -46 -80 -69 -85 -55 -12 -130 11
-195 61 -42 32 -135 74 -164 74 -32 0 -50 -27 -51 -73 0 -48 -23 -104 -58
-141 -52 -55 -124 -106 -150 -106 -14 0 -73 29 -132 64 -134 82 -206 116 -249
116 -23 0 -54 14 -103 48 -38 26 -120 79 -181 119 -62 39 -113 77 -115 85 -2
9 25 29 70 52 95 49 138 83 138 105 0 11 -25 58 -55 106 -44 70 -55 97 -55
130 0 82 58 227 102 255 12 8 55 33 93 55 39 22 114 76 168 118 54 42 103 77
108 77 5 0 13 -10 18 -23 19 -48 33 -52 137 -32 79 16 101 17 137 7 23 -7 90
-24 148 -38 l107 -26 6 -82 c12 -138 14 -145 61 -175 24 -15 78 -35 122 -44
70 -15 93 -26 188 -92 60 -41 141 -87 179 -102 39 -14 126 -64 194 -110 83
-56 132 -83 151 -83 20 0 44 14 79 45 57 51 192 225 192 247 0 8 -39 52 -86
99 -47 46 -102 108 -121 136 -77 116 -153 183 -206 183 -75 0 -207 69 -207
108 0 36 88 111 220 188 8 4 94 12 190 16 138 6 204 14 310 38 162 36 251 35
328 -4z"/>
<path d="M6391 16305 c1 -19 18 -51 18 -35 0 8 -4 22 -9 30 -5 8 -9 11 -9 5z"/>
<path d="M6520 15935 c0 -5 5 -17 10 -25 5 -8 10 -10 10 -5 0 6 -5 17 -10 25
-5 8 -10 11 -10 5z"/>
<path d="M6582 15740 c0 -14 2 -19 5 -12 2 6 2 18 0 25 -3 6 -5 1 -5 -13z"/>
<path d="M6590 15681 c0 -11 4 -22 9 -25 4 -3 6 6 3 19 -5 30 -12 33 -12 6z"/>
<path d="M6595 15630 c-3 -5 1 -10 9 -10 9 0 16 5 16 10 0 6 -4 10 -9 10 -6 0
-13 -4 -16 -10z"/>
<path d="M9425 13959 c-4 -6 -5 -12 -2 -15 2 -3 7 2 10 11 7 17 1 20 -8 4z"/>
<path d="M9490 12567 c0 -2 14 -16 30 -32 33 -32 42 -17 10 15 -17 17 -40 27
-40 17z"/>
<path d="M13441 12329 c-157 -31 -307 -106 -511 -259 -175 -131 -275 -198
-330 -220 -99 -41 -290 10 -458 123 -133 89 -122 88 -275 11 -73 -37 -157 -75
-187 -86 -60 -21 -159 -24 -225 -8 -22 5 -71 10 -108 10 -61 0 -68 -2 -76 -22
-13 -34 9 -68 86 -135 136 -117 193 -185 193 -231 0 -21 -38 -63 -148 -165
-29 -27 -43 -49 -47 -75 -3 -20 -11 -48 -18 -62 -11 -22 -20 -25 -63 -25 -30
1 -67 9 -95 23 -25 12 -58 22 -74 22 -35 0 -115 -29 -115 -41 0 -14 33 -10 54
6 29 22 77 18 138 -10 61 -28 138 -33 161 -10 9 8 18 33 22 55 9 52 48 109
113 161 84 69 107 121 78 178 -9 17 -16 39 -16 51 0 11 -6 20 -12 20 -20 1
-211 164 -227 194 -13 24 -13 28 2 43 16 16 23 16 119 0 159 -27 196 -24 320
27 59 24 137 60 173 80 36 20 76 36 88 36 13 0 54 -21 92 -46 130 -87 272
-144 395 -158 95 -12 170 27 435 224 235 175 350 235 513 266 133 25 323 14
352 -21 7 -8 5 -25 -5 -56 -27 -75 -14 -133 45 -209 15 -19 52 -76 82 -127
l55 -91 -9 -59 c-5 -32 -26 -95 -47 -139 -33 -68 -48 -89 -93 -122 -78 -58
-115 -104 -134 -169 -33 -115 -48 -148 -88 -191 -23 -25 -139 -110 -259 -190
-151 -100 -219 -151 -223 -167 -7 -29 9 -86 57 -206 69 -170 54 -215 -78 -239
-107 -19 -103 -16 -103 -63 0 -23 4 -71 9 -107 5 -36 12 -102 16 -147 l7 -81
46 -11 c26 -7 79 -25 117 -41 39 -16 101 -41 140 -56 104 -39 134 -56 140 -75
3 -9 -13 -70 -35 -135 -22 -65 -45 -150 -51 -189 -13 -80 -24 -105 -83 -183
-52 -68 -71 -105 -81 -152 -18 -95 -49 -216 -58 -227 -5 -8 -42 -13 -95 -15
-83 -3 -86 -4 -103 -33 -10 -16 -18 -44 -18 -61 -1 -43 51 -88 125 -110 58
-17 59 -18 67 -75 l5 -37 -78 17 c-90 20 -142 51 -197 120 -47 60 -100 111
-114 111 -6 0 -42 -32 -80 -71 -66 -68 -72 -71 -107 -66 -20 3 -44 8 -53 12
-11 4 -37 -12 -80 -48 -35 -30 -83 -64 -106 -76 -52 -26 -54 -41 -14 -125 48
-101 48 -104 -9 -164 -27 -30 -50 -58 -50 -63 0 -32 -89 37 -134 105 -32 48
-25 65 43 91 66 25 66 43 4 125 -27 35 -57 76 -69 92 -14 19 -25 57 -33 118
l-13 90 41 47 c22 26 38 49 35 52 -5 5 -82 -67 -94 -89 -11 -20 21 -186 44
-225 9 -16 39 -57 66 -90 28 -32 50 -64 50 -71 0 -6 -25 -23 -55 -38 -30 -14
-56 -31 -56 -38 -5 -52 41 -121 115 -176 87 -64 129 -153 145 -307 l9 -89 49
-46 c27 -25 73 -66 103 -91 53 -44 54 -47 42 -73 -11 -25 -59 -91 -89 -124 -9
-10 -13 -58 -13 -167 0 -176 6 -165 -95 -185 -80 -16 -174 -66 -181 -97 -9
-33 3 -86 35 -157 43 -94 45 -102 24 -151 -20 -50 -46 -62 -103 -45 -47 14
-121 12 -141 -3 -20 -15 -45 -63 -53 -104 -7 -30 -11 -32 -74 -43 -37 -6 -86
-20 -109 -30 -49 -21 -55 -45 -24 -88 10 -15 30 -52 45 -83 17 -37 42 -69 76
-96 l50 -41 -51 -49 c-28 -26 -64 -67 -80 -89 -29 -43 -253 -204 -283 -204 -8
0 -27 -17 -42 -37 -15 -21 -40 -51 -54 -68 -27 -30 -27 -31 -17 -111 13 -105
8 -118 -40 -109 -20 4 -46 13 -57 21 -11 8 -30 14 -42 14 -25 0 -144 -76 -145
-93 -3 -31 4 -84 12 -99 19 -35 54 -32 135 11 42 23 78 40 81 38 2 -3 8 -33
14 -68 14 -92 52 -150 109 -167 25 -8 52 -16 60 -19 8 -4 19 -5 23 -4 4 1 32
3 62 6 63 5 71 -3 78 -73 2 -26 12 -51 27 -67 37 -39 43 -30 15 22 -18 34 -25
63 -25 101 0 48 -2 53 -17 46 -28 -12 -133 -13 -192 -1 -73 16 -98 49 -115
157 -8 44 -16 83 -18 86 -3 2 -43 -11 -89 -31 -101 -42 -126 -44 -135 -10 -10
42 4 74 45 100 22 13 42 29 46 35 8 14 31 13 68 -3 70 -30 101 -37 112 -26 5
6 10 55 10 113 l0 102 39 52 c22 28 46 54 54 57 8 3 65 39 126 79 85 57 134
100 210 182 l98 107 -55 51 c-48 46 -80 97 -135 218 -6 13 53 36 126 48 40 7
76 18 80 24 5 6 16 32 26 57 25 70 45 83 108 74 29 -3 76 -6 103 -6 28 1 55
-2 61 -6 6 -5 55 -66 109 -138 53 -71 111 -142 128 -157 27 -23 155 -68 195
-68 32 0 141 -45 191 -79 78 -53 123 -74 221 -105 137 -43 181 -78 264 -214
34 -55 62 -54 81 1 7 21 16 41 19 44 15 15 226 -119 265 -169 25 -31 42 -109
33 -153 -4 -25 -33 -40 -92 -50 -69 -12 -75 -24 -76 -138 0 -56 -4 -118 -8
-137 -14 -59 -55 -129 -112 -191 -60 -65 -70 -86 -76 -145 l-3 -39 90 -7 c50
-3 102 -11 116 -16 38 -15 78 -67 116 -151 103 -225 113 -243 192 -320 92 -92
156 -125 280 -145 135 -22 127 -12 134 -171 4 -95 11 -146 23 -170 29 -61 119
-132 269 -211 30 -16 21 -74 -28 -174 -48 -97 -80 -124 -108 -91 -9 11 -19 37
-22 59 -13 79 -59 89 -144 32 -83 -56 -75 -57 -167 4 -46 30 -99 74 -117 97
-30 38 -35 53 -46 145 -22 184 -39 197 -268 213 -235 16 -409 25 -421 23 -6
-1 -16 32 -23 79 -20 130 -24 133 -93 63 -53 -53 -114 -79 -135 -59 -7 7 -34
21 -60 31 -55 21 -114 53 -126 69 -4 5 -5 24 -2 42 4 21 -1 50 -14 80 -15 36
-21 80 -24 179 -3 74 -10 141 -17 153 -15 29 -68 51 -120 51 -24 0 -39 4 -35
10 8 14 -22 111 -43 136 -10 12 -28 27 -41 33 -20 11 -29 9 -72 -21 -27 -18
-49 -38 -49 -45 0 -18 30 -5 67 30 32 30 33 30 54 11 29 -26 59 -91 59 -131 0
-18 1 -33 3 -34 1 0 22 -2 47 -5 59 -6 98 -22 104 -43 25 -81 33 -250 14 -269
-9 -9 -10 -15 -2 -20 25 -16 45 -74 43 -122 -2 -28 -1 -51 2 -53 2 -2 42 -26
89 -52 71 -40 95 -49 145 -51 60 -3 60 -3 102 42 23 25 48 44 55 42 16 -6 27
-51 30 -125 2 -43 7 -63 16 -63 7 0 15 7 18 15 7 17 44 19 93 5 19 -5 136 -15
260 -21 126 -6 237 -16 251 -22 37 -18 60 -75 72 -182 10 -90 14 -99 51 -146
37 -47 89 -88 151 -119 16 -8 31 -23 34 -32 5 -21 45 -24 64 -5 27 28 118 87
133 87 16 0 39 -44 49 -92 12 -57 54 -73 100 -37 48 38 129 232 113 272 -3 9
-42 34 -87 57 -93 49 -173 116 -199 169 -14 27 -20 68 -24 164 -6 168 -6 168
-135 189 -55 9 -125 27 -156 41 -84 39 -225 189 -240 258 -5 20 2 30 40 59 82
63 124 162 124 293 0 58 4 79 14 83 21 8 261 -25 315 -43 25 -8 81 -44 124
-79 44 -35 88 -64 100 -64 14 0 69 49 165 145 l143 145 30 -15 c26 -14 31 -14
54 1 13 9 57 54 96 100 48 58 74 82 82 76 38 -29 196 -104 277 -132 52 -18
107 -39 123 -47 38 -19 76 -75 154 -224 36 -70 75 -139 87 -154 l22 -27 45 22
c24 12 65 38 92 56 26 19 52 34 59 34 12 0 102 -34 213 -81 96 -40 129 -45
159 -25 42 27 66 58 102 129 19 37 41 67 49 67 8 0 32 -36 55 -79 52 -101 67
-114 106 -101 17 6 38 24 47 40 19 32 39 31 70 -4 29 -33 18 -59 -33 -76 -66
-22 -67 -23 -74 -97 -3 -37 -21 -109 -38 -158 -17 -50 -29 -98 -25 -107 3 -10
24 -22 46 -28 44 -12 50 -26 31 -76 -17 -44 6 -90 86 -176 78 -83 89 -111 56
-141 -10 -9 -32 -20 -49 -23 -28 -5 -38 0 -82 41 -45 42 -54 46 -83 40 -97
-19 -132 -32 -185 -72 -32 -24 -60 -43 -63 -43 -3 0 -24 22 -47 49 -52 60 -85
74 -139 55 -47 -16 -112 -84 -145 -151 -26 -53 -42 -202 -20 -189 6 4 11 29
11 55 0 95 59 198 144 250 56 35 78 28 133 -39 26 -33 51 -60 55 -60 3 0 41
23 84 52 49 32 89 52 110 53 19 1 40 7 47 14 11 8 23 5 53 -17 38 -27 82 -50
136 -70 17 -7 30 -23 38 -49 7 -21 16 -42 21 -47 16 -17 9 17 -11 62 -14 31
-17 49 -10 62 8 15 31 30 45 30 9 0 95 -91 95 -101 0 -7 3 -9 7 -5 12 12 -26
70 -61 94 -24 16 -36 34 -41 60 -5 26 -25 55 -76 107 -84 87 -95 115 -69 186
10 28 25 58 32 67 7 9 0 6 -16 -6 -26 -20 -31 -21 -46 -7 -9 8 -26 15 -37 15
-34 0 -34 25 -3 110 16 43 33 112 37 152 l8 73 35 5 c19 4 47 14 61 23 14 9
29 14 32 10 11 -11 8 6 -10 58 -10 27 -23 49 -28 49 -6 0 -24 14 -40 30 -25
26 -27 32 -15 44 12 12 25 13 65 5 35 -7 56 -6 72 2 12 6 35 10 51 7 20 -3 28
0 25 8 -2 6 7 21 21 32 50 39 42 53 -100 178 -93 81 -107 89 -193 108 -41 10
-82 21 -92 26 -29 16 -33 65 -11 128 11 31 23 74 27 94 7 44 42 76 94 84 41 7
64 21 73 46 10 26 -18 136 -56 223 -40 89 -44 121 -18 129 134 40 180 48 347
57 99 6 198 10 219 9 63 -1 99 -30 131 -105 22 -53 35 -70 64 -85 20 -10 50
-39 66 -64 17 -25 36 -48 43 -51 8 -3 32 8 55 25 23 16 74 52 112 80 98 70
125 77 178 50 23 -12 47 -28 53 -36 10 -12 16 -11 40 8 26 21 43 24 179 29 82
4 151 7 152 8 1 0 0 7 -3 15 -3 8 -1 17 5 21 14 8 2 31 -50 100 -58 77 -86
169 -80 263 0 13 5 21 10 17 5 -3 21 0 36 7 20 9 42 9 98 -1 40 -7 86 -15 103
-18 23 -4 59 6 128 36 53 23 105 41 116 41 19 0 141 -59 167 -80 17 -14 56
-12 138 5 93 20 166 58 219 115 83 89 115 182 102 293 -7 50 -9 54 -31 49 -14
-2 -36 4 -53 17 -28 19 -30 26 -34 103 -3 48 -14 108 -27 143 -11 32 -21 73
-21 90 0 41 42 104 132 200 41 44 84 98 97 119 l22 39 -30 46 c-45 69 -121
207 -121 219 0 6 18 25 40 42 22 17 40 38 40 47 0 29 -31 79 -58 95 -29 18
-132 43 -236 59 -49 8 -65 15 -87 42 -15 17 -33 44 -39 58 -16 38 -79 60 -180
65 -58 3 -99 11 -130 26 -25 11 -52 24 -60 28 -8 3 -25 26 -37 51 -17 36 -28
46 -60 55 -31 9 -45 21 -73 67 -68 111 -192 173 -355 179 -77 3 -80 4 -100 35
-24 38 -36 44 -150 72 -50 13 -99 29 -109 36 -14 11 -19 34 -25 124 -9 128
-20 152 -91 189 -56 28 -123 29 -187 1 -66 -29 -77 -30 -131 -14 -26 8 -77 19
-114 25 -59 11 -72 10 -125 -9 -32 -11 -69 -22 -83 -23 -26 -3 -26 -4 -45
-139 -3 -25 -15 -56 -26 -68 -31 -33 -36 -84 -10 -110 11 -11 30 -21 41 -21
10 0 23 -8 29 -17 11 -22 -2 -158 -19 -195 -13 -27 -54 -48 -96 -48 -26 0 -67
-45 -95 -105 -11 -23 -40 -61 -64 -85 -25 -24 -45 -52 -45 -61 0 -10 33 -44
73 -76 99 -81 103 -91 77 -199 -11 -48 -18 -95 -15 -104 4 -13 53 -33 168 -70
142 -47 207 -78 207 -100 0 -4 25 -32 56 -63 l57 -57 -6 -52 c-3 -31 -23 -90
-46 -141 -23 -49 -41 -95 -41 -102 0 -7 16 -36 35 -64 19 -29 32 -57 29 -64
-12 -28 -104 -77 -143 -77 -33 0 -43 -5 -61 -30 -12 -16 -27 -30 -34 -30 -7 0
-40 20 -75 44 -68 48 -142 67 -179 47 -58 -31 -63 -64 -36 -216 28 -157 2
-408 -46 -447 -27 -22 -81 -23 -118 -4 -33 17 -60 53 -101 133 -32 65 -44 78
-62 67 -7 -4 -2 -16 14 -33 13 -14 39 -54 57 -89 19 -35 44 -72 58 -82 30 -24
81 -34 127 -26 49 10 70 47 91 164 18 103 15 278 -7 400 -10 53 -9 66 5 87 33
50 107 41 196 -25 29 -22 59 -40 65 -40 7 0 33 16 58 35 25 19 49 35 53 35 5
0 22 -13 39 -29 16 -16 73 -61 125 -101 l95 -72 70 6 c39 4 100 9 136 13 64 5
69 4 157 -41 51 -25 140 -62 199 -82 139 -46 218 -88 242 -128 37 -60 78 -190
84 -268 8 -90 35 -168 83 -239 20 -28 36 -63 37 -77 l2 -27 -135 -5 c-85 -3
-145 -10 -162 -19 -24 -12 -32 -11 -79 14 -48 25 -56 26 -93 15 -41 -12 -124
-64 -202 -127 -23 -18 -45 -33 -50 -33 -5 0 -20 16 -33 35 -13 19 -43 47 -67
62 -41 26 -50 41 -85 130 -15 39 -87 77 -144 76 -271 -5 -485 -34 -581 -79
l-32 -15 20 -52 c10 -29 28 -72 40 -97 29 -63 48 -127 48 -166 0 -37 -12 -47
-90 -70 -43 -13 -50 -19 -63 -57 -61 -172 -66 -201 -40 -247 17 -30 27 -35 94
-50 94 -21 117 -31 154 -67 17 -16 58 -52 91 -81 61 -51 85 -95 65 -115 -18
-18 -108 -43 -127 -36 -60 24 -130 -5 -120 -47 7 -26 -17 -81 -42 -100 -29
-21 -49 -2 -92 87 -63 128 -85 128 -150 -1 -34 -67 -70 -107 -103 -115 -16 -4
-47 3 -88 20 -134 56 -253 95 -273 89 -10 -4 -48 -26 -83 -50 -35 -24 -70 -44
-77 -44 -20 0 -38 27 -106 155 -112 214 -132 233 -290 285 -50 16 -139 54
-198 85 l-107 56 -30 -34 c-16 -19 -54 -61 -83 -95 -32 -37 -61 -62 -73 -62
-33 0 -78 28 -194 122 -96 78 -116 100 -153 166 -24 43 -55 89 -69 104 -23 24
-26 36 -26 90 1 59 3 65 34 91 21 17 72 39 134 58 55 17 150 48 210 71 84 30
124 40 168 39 66 -1 95 11 177 74 30 23 81 52 113 65 32 13 77 38 98 56 l40
33 42 -30 c63 -46 83 -36 118 59 6 17 17 32 24 32 8 0 37 -20 66 -45 100 -85
218 -106 389 -70 41 9 129 20 195 24 135 9 142 7 215 -56 62 -54 91 -73 112
-73 26 0 22 17 -4 24 -13 3 -53 30 -89 60 -37 31 -77 59 -90 64 -33 12 -217
-3 -373 -29 -146 -25 -195 -20 -278 29 -84 49 -118 88 -149 167 -57 149 -86
196 -177 281 -99 94 -99 83 3 167 70 58 92 87 106 142 8 33 18 45 52 63 43 22
62 26 110 24 21 -2 31 -10 44 -39 9 -21 34 -60 54 -88 26 -36 38 -64 42 -98 7
-75 48 -106 93 -72 10 8 27 15 37 15 19 0 92 -34 100 -48 3 -4 -17 -34 -44
-67 -54 -65 -57 -73 -33 -82 23 -8 77 22 104 59 20 27 20 29 3 19 -11 -5 -26
-17 -33 -26 -7 -9 -22 -21 -32 -26 -33 -18 -21 19 22 63 45 47 48 58 23 79
-47 39 -103 53 -152 38 -68 -20 -83 9 -54 105 3 12 1 17 -8 14 -21 -7 -81 69
-94 120 -10 39 -16 47 -36 48 -13 0 -39 4 -57 8 -26 6 -41 2 -77 -19 -51 -30
-67 -26 -107 27 -29 39 -44 80 -57 163 l-10 60 6 -72 c5 -68 4 -73 -15 -73
-25 0 -34 12 -60 83 -24 64 -29 145 -11 180 6 12 54 65 106 118 93 95 94 96
95 146 0 55 -40 158 -91 236 -39 59 -54 102 -48 134 3 16 1 47 -5 71 -9 36
-14 43 -30 38 -27 -6 -65 12 -71 35 -3 10 -3 36 0 58 5 37 2 42 -56 102 -82
87 -81 99 12 103 38 1 52 5 52 16 0 8 -7 13 -15 12 -8 -2 -35 -6 -59 -8 -90
-9 -95 -49 -15 -131 l56 -57 -6 -53 c-6 -53 -6 -54 26 -71 18 -9 45 -30 61
-47 23 -23 28 -35 24 -61 -7 -39 16 -108 49 -151 25 -34 80 -162 90 -211 9
-43 -13 -76 -116 -179 l-93 -91 -1 -69 c0 -51 6 -88 28 -149 16 -45 34 -81 40
-81 43 1 57 -8 96 -58 69 -90 58 -129 -73 -248 l-84 -76 -42 20 c-51 24 -61
22 -165 -44 -129 -80 -168 -75 -274 37 -57 60 -62 82 -37 151 29 82 19 125
-85 340 -145 303 -140 295 -195 326 -27 16 -57 29 -66 29 -19 0 -29 20 -29 56
0 15 -20 46 -55 84 -30 33 -55 63 -56 67 0 5 -2 49 -3 100 -3 101 -15 130 -69
163 -48 30 -89 25 -173 -19 -94 -50 -141 -58 -190 -35 -43 20 -65 54 -89 132
-9 31 -41 120 -70 197 -29 77 -56 158 -59 180 -15 92 -17 95 -59 117 -95 48
-115 43 -151 -37 -14 -29 -29 -56 -34 -59 -5 -3 -40 18 -78 46 -38 27 -88 60
-111 71 l-43 21 0 115 c-1 102 5 138 41 291 49 207 53 219 112 290 62 77 87
127 87 177 0 40 29 146 72 260 l19 52 87 -92 c159 -168 211 -211 326 -262 67
-31 232 -52 461 -60 202 -7 235 -11 235 -29 0 -7 -27 -36 -60 -65 -69 -60 -75
-83 -32 -133 16 -18 39 -45 52 -60 28 -33 50 -36 68 -8 13 21 56 27 67 10 3
-5 23 -10 44 -10 26 0 44 -7 58 -22 22 -25 82 -138 92 -176 7 -25 40 -46 134
-86 52 -23 60 -31 82 -78 18 -38 23 -62 19 -85 -6 -31 7 -46 20 -24 12 19 47
-3 80 -49 33 -46 67 -104 66 -115 -1 -29 2 -33 20 -28 11 3 20 10 20 16 0 23
-126 198 -146 203 -15 4 -28 23 -43 62 -12 31 -27 64 -34 73 -6 9 -50 34 -97
57 l-85 42 -39 86 c-48 104 -82 144 -124 144 -47 0 -83 17 -76 35 10 24 -12
17 -48 -15 -18 -16 -35 -30 -38 -30 -3 0 -22 17 -41 38 -68 72 -68 64 5 137
70 69 78 88 46 105 -11 6 -20 8 -20 4 0 -3 -6 -1 -14 5 -9 7 -88 13 -222 17
-115 2 -216 7 -226 10 -9 3 -57 11 -106 18 -79 12 -101 20 -176 65 -70 42
-110 78 -222 199 -76 81 -151 156 -168 168 -17 12 -74 38 -126 58 -52 20 -120
47 -150 60 -30 13 -72 29 -93 36 -43 14 -42 9 -56 185 -16 185 -18 172 32 180
82 13 146 35 162 57 8 13 15 40 15 61 0 39 -35 153 -72 236 -27 61 -34 107
-17 127 8 10 70 54 139 99 247 160 273 179 315 221 54 52 67 79 90 171 20 87
54 137 129 192 30 22 63 53 75 70 40 55 80 155 87 213 4 32 10 58 15 58 10 0
-121 209 -159 255 -14 17 -31 45 -39 63 -14 33 -12 48 22 159 6 20 1 24 -60
42 -72 23 -236 28 -324 10z m3669 -3415 c36 -8 81 -18 100 -23 27 -6 51 -2
100 16 104 39 181 23 231 -48 12 -17 19 -54 24 -124 4 -55 11 -108 16 -118 16
-29 51 -45 127 -56 75 -12 124 -31 139 -53 26 -41 54 -52 151 -59 158 -11 274
-79 321 -189 17 -40 26 -50 46 -50 44 0 73 -20 82 -58 5 -19 15 -38 23 -42 8
-3 39 -18 68 -33 39 -20 67 -27 112 -27 32 0 82 -5 109 -11 44 -9 58 -19 111
-79 50 -56 69 -70 98 -75 20 -3 66 -11 102 -16 81 -13 116 -26 158 -56 41 -30
45 -74 8 -91 -14 -6 -32 -22 -41 -35 -19 -30 -12 -49 75 -201 l61 -106 -28
-39 c-15 -21 -63 -79 -107 -127 -43 -49 -88 -108 -99 -131 l-21 -42 32 -114
c18 -64 32 -137 32 -168 0 -55 12 -79 37 -79 8 0 27 -10 43 -22 28 -20 30 -27
30 -83 0 -81 -35 -151 -114 -231 -70 -70 -121 -92 -232 -101 -68 -5 -73 -4
-153 37 -99 51 -123 50 -236 -5 l-76 -38 -75 17 c-86 19 -147 21 -175 5 -29
-15 -43 0 -68 79 -47 149 -77 173 -300 253 -79 28 -177 68 -218 90 -83 44
-110 47 -232 25 -46 -9 -86 -10 -104 -5 -40 11 -200 131 -219 165 -5 8 9 25
42 48 28 20 53 42 56 49 4 12 -24 69 -58 119 -10 13 -4 33 30 105 45 95 66
171 55 200 -3 10 -35 48 -70 86 -35 37 -63 73 -63 81 0 17 -16 23 -203 78
l-149 43 5 45 c4 25 12 73 20 107 18 77 12 87 -90 167 -40 32 -73 59 -73 61 0
2 20 27 44 54 24 27 59 77 76 110 29 54 38 62 74 72 107 29 114 39 126 174 8
99 5 110 -41 120 -50 11 -59 67 -16 103 9 8 17 41 22 87 4 46 13 83 23 95 16
19 125 58 167 59 11 0 49 -6 85 -15z m-3970 -166 c0 -113 -4 -117 -77 -89 -96
37 -126 84 -88 138 16 23 39 29 118 32 l47 1 0 -82z m-352 -40 c70 -83 130
-142 163 -158 20 -10 75 -26 123 -35 109 -20 137 -32 213 -89 61 -46 108 -63
130 -49 6 5 20 31 30 58 16 42 23 51 47 53 18 2 41 -6 66 -23 34 -23 40 -35
50 -84 6 -31 25 -94 41 -141 17 -47 51 -140 74 -208 54 -153 77 -186 145 -202
57 -14 91 -5 198 52 62 32 90 35 137 12 45 -21 58 -59 59 -171 l1 -95 43 -39
c52 -49 68 -74 76 -119 5 -33 2 -37 -42 -70 -85 -64 -132 -112 -153 -159 -20
-45 -66 -218 -89 -335 -20 -97 -38 -138 -82 -183 -67 -68 -87 -62 -223 66 -44
42 -102 89 -130 105 -146 83 -173 106 -231 195 -79 120 -163 191 -224 191 -14
0 -20 7 -20 23 0 77 -52 148 -123 165 -23 6 -107 22 -187 36 -207 36 -268 57
-332 114 -29 26 -74 65 -101 85 -61 49 -73 74 -87 178 -11 83 -37 167 -72 224
-27 45 -22 63 32 121 28 29 50 62 50 72 0 11 -16 54 -35 96 -19 43 -35 81 -35
86 0 4 19 18 42 30 23 12 66 44 96 71 53 49 75 58 87 39 9 -15 62 -12 93 4 15
8 48 37 73 65 26 28 52 51 59 51 6 0 24 -14 38 -32z m-89 -1188 c43 -11 132
-29 197 -40 204 -35 231 -48 261 -125 22 -57 17 -72 -37 -107 -54 -36 -61 -55
-30 -83 10 -9 50 -64 87 -122 37 -57 99 -141 137 -186 38 -45 80 -106 93 -135
24 -51 24 -56 13 -120 -7 -37 -24 -103 -37 -147 -93 -304 -94 -367 -12 -487
41 -61 45 -77 29 -109 -16 -30 -38 -23 -59 20 -50 97 -117 147 -267 196 -66
22 -135 53 -174 79 -113 74 -137 84 -267 112 -131 27 -171 54 -247 168 -19 28
-60 83 -91 121 -44 55 -55 75 -51 95 3 14 8 39 11 55 5 23 -3 52 -29 112 -25
57 -36 96 -36 130 0 47 2 50 39 71 22 12 77 32 123 43 45 11 89 25 96 31 9 8
12 53 12 163 l0 153 35 42 c19 22 44 59 56 81 22 38 23 38 46 24 13 -9 59 -25
102 -35z m1779 -124 c50 -26 55 -35 186 -308 118 -249 116 -236 85 -364 -17
-69 -8 -93 55 -154 118 -114 148 -117 294 -29 l101 60 48 -25 c26 -13 66 -39
88 -58 109 -92 132 -119 177 -212 60 -121 66 -152 39 -204 -12 -23 -21 -48
-21 -55 0 -8 -7 -20 -15 -27 -17 -14 -40 -6 -86 31 l-26 21 -51 -39 c-28 -21
-74 -46 -101 -56 -28 -10 -80 -40 -116 -68 -78 -60 -101 -69 -168 -69 -36 0
-93 -14 -182 -44 -71 -25 -163 -55 -203 -67 -100 -30 -157 -68 -172 -114 -16
-48 -5 -117 24 -152 12 -16 39 -58 59 -94 36 -65 72 -103 205 -214 57 -47 71
-64 66 -80 -6 -22 -245 -265 -260 -265 -5 0 -48 31 -97 69 -63 51 -100 72
-134 80 -82 18 -322 45 -330 37 -5 -4 -11 -51 -14 -104 -8 -134 -30 -194 -92
-254 -28 -26 -55 -48 -61 -48 -7 0 -29 35 -49 78 -61 124 -96 170 -142 187
-32 11 -110 21 -187 25 -13 0 -9 59 6 88 8 15 29 41 46 57 49 45 107 139 126
203 12 41 15 79 11 135 -7 109 -5 114 62 133 106 29 101 24 101 111 0 60 -5
85 -19 107 -30 45 -119 114 -203 157 -150 76 -212 187 -188 336 5 32 31 130
56 218 61 211 63 268 13 345 -20 30 -56 78 -81 105 -24 28 -77 100 -117 160
-41 61 -82 119 -92 131 -28 30 -23 46 21 72 45 25 80 28 118 8 35 -18 121
-109 151 -161 41 -69 113 -135 200 -183 55 -30 118 -78 179 -135 128 -120 160
-131 231 -74 57 45 76 90 116 272 39 179 66 266 94 309 11 16 50 53 88 82 73
58 110 67 161 40z"/>
<path d="M13860 12151 c0 -5 5 -13 10 -16 6 -3 10 -2 10 4 0 5 -4 13 -10 16
-5 3 -10 2 -10 -4z"/>
<path d="M13915 12150 c-3 -5 -3 -14 0 -20 3 -5 -1 -10 -9 -10 -9 0 -13 -6
-10 -14 8 -21 37 -7 31 15 -3 11 -1 19 4 19 5 0 9 5 9 10 0 6 -4 10 -9 10 -6
0 -13 -4 -16 -10z"/>
<path d="M10200 12120 c0 -5 5 -10 11 -10 5 0 7 5 4 10 -3 6 -8 10 -11 10 -2
0 -4 -4 -4 -10z"/>
<path d="M10203 12025 c0 -44 2 -61 4 -37 2 23 2 59 0 80 -2 20 -4 1 -4 -43z"/>
<path d="M2368 12033 c12 -2 32 -2 45 0 12 2 2 4 -23 4 -25 0 -35 -2 -22 -4z"/>
<path d="M2520 12020 c102 -14 302 -31 307 -27 6 6 -168 26 -277 31 -86 4 -89
4 -30 -4z"/>
<path d="M2858 11983 c7 -3 16 -2 19 1 4 3 -2 6 -13 5 -11 0 -14 -3 -6 -6z"/>
<path d="M2088 11973 c6 -2 18 -2 25 0 6 3 1 5 -13 5 -14 0 -19 -2 -12 -5z"/>
<path d="M2918 11973 c12 -2 30 -2 40 0 9 3 -1 5 -23 4 -22 0 -30 -2 -17 -4z"/>
<path d="M3025 11942 c6 -6 42 -13 80 -16 39 -3 123 -14 188 -26 122 -21 143
-23 136 -16 -6 6 -278 53 -354 61 -40 5 -57 3 -50 -3z"/>
<path d="M5845 11891 c17 -18 44 -39 60 -47 17 -8 21 -9 11 -2 -11 7 -38 29
-60 48 l-41 34 30 -33z"/>
<path d="M10202 11890 c0 -19 2 -27 5 -17 2 9 2 25 0 35 -3 9 -5 1 -5 -18z"/>
<path d="M3441 11876 c9 -9 129 -33 129 -25 0 4 -23 12 -50 18 -53 11 -87 14
-79 7z"/>
<path d="M10211 11804 c0 -11 3 -14 6 -6 3 7 2 16 -1 19 -3 4 -6 -2 -5 -13z"/>
<path d="M14020 11776 c0 -2 8 -10 18 -17 15 -13 16 -12 3 4 -13 16 -21 21
-21 13z"/>
<path d="M14057 11719 c4 -13 8 -18 11 -10 2 7 -1 18 -6 23 -8 8 -9 4 -5 -13z"/>
<path d="M10606 11553 c-10 -11 -7 -45 4 -38 6 4 8 10 5 15 -3 4 0 10 7 12 8
3 9 6 1 11 -5 4 -13 4 -17 0z"/>
<path d="M6510 11486 c0 -3 9 -10 20 -16 11 -6 20 -8 20 -6 0 3 -9 10 -20 16
-11 6 -20 8 -20 6z"/>
<path d="M14027 11443 c-4 -3 -7 -11 -7 -17 0 -6 5 -5 12 2 6 6 9 14 7 17 -3
3 -9 2 -12 -2z"/>
<path d="M5682 11078 c-14 -14 -16 -38 -3 -38 10 0 26 39 19 46 -2 2 -10 -2
-16 -8z"/>
<path d="M4580 11018 c0 -4 7 -8 15 -8 8 0 18 -1 23 -2 4 -1 22 -5 40 -9 17
-4 34 -3 37 1 2 4 -22 12 -55 17 -33 5 -60 6 -60 1z"/>
<path d="M5662 10580 c0 -14 2 -19 5 -12 2 6 2 18 0 25 -3 6 -5 1 -5 -13z"/>
<path d="M5353 10573 c9 -2 25 -2 35 0 9 3 1 5 -18 5 -19 0 -27 -2 -17 -5z"/>
<path d="M5428 10563 c12 -2 30 -2 40 0 9 3 -1 5 -23 4 -22 0 -30 -2 -17 -4z"/>
<path d="M5547 10553 c18 -2 50 -2 70 0 21 2 7 4 -32 4 -38 0 -55 -2 -38 -4z"/>
<path d="M9680 10490 c14 -11 30 -20 35 -20 6 0 -1 9 -15 20 -14 11 -29 20
-35 20 -5 0 1 -9 15 -20z"/>
<path d="M9360 10461 c0 -9 51 -34 57 -27 2 2 -10 11 -26 19 -17 9 -31 12 -31
8z"/>
<path d="M13111 10064 c0 -11 3 -14 6 -6 3 7 2 16 -1 19 -3 4 -6 -2 -5 -13z"/>
<path d="M13122 10020 c0 -14 2 -19 5 -12 2 6 2 18 0 25 -3 6 -5 1 -5 -13z"/>
<path d="M13131 9974 c0 -11 3 -14 6 -6 3 7 2 16 -1 19 -3 4 -6 -2 -5 -13z"/>
<path d="M11328 9348 c-10 -12 -15 -24 -13 -27 8 -8 38 26 34 38 -2 5 -12 1
-21 -11z"/>
<path d="M14610 9120 c-40 -36 -30 -40 12 -5 34 29 47 31 74 10 23 -17 54 -20
54 -4 0 6 -6 9 -13 6 -7 -3 -24 1 -38 9 -36 20 -52 17 -89 -16z"/>
<path d="M17642 8747 c9 -7 18 -31 20 -53 2 -32 7 -40 26 -42 12 -2 22 1 22 7
0 6 -9 11 -20 11 -18 0 -20 6 -18 43 3 38 1 42 -22 45 -22 2 -23 1 -8 -11z"/>
<path d="M15340 8326 c0 -2 8 -10 18 -17 15 -13 16 -12 3 4 -13 16 -21 21 -21
13z"/>
<path d="M15377 8293 c-4 -6 3 -19 16 -29 12 -11 17 -12 11 -4 -6 8 -13 22
-16 30 -3 9 -7 10 -11 3z"/>
<path d="M16838 7543 c7 -3 16 -2 19 1 4 3 -2 6 -13 5 -11 0 -14 -3 -6 -6z"/>
<path d="M16892 7524 c8 -9 23 -14 33 -12 12 2 7 7 -16 15 -30 12 -32 11 -17
-3z"/>
<path d="M15616 7353 c-6 -14 -5 -15 5 -6 7 7 10 15 7 18 -3 3 -9 -2 -12 -12z"/>
<path d="M16110 6497 c0 -17 37 -71 66 -96 34 -31 35 -31 59 -14 30 22 33 38
5 23 -26 -14 -72 16 -90 60 -7 16 -19 30 -26 30 -8 0 -14 -2 -14 -3z"/>
<path d="M18038 5663 c7 -3 16 -2 19 1 4 3 -2 6 -13 5 -11 0 -14 -3 -6 -6z"/>
<path d="M11524 5026 c23 -19 32 -20 41 -6 3 6 0 10 -9 10 -8 0 -23 3 -33 6
-16 5 -16 4 1 -10z"/>
<path d="M10190 4949 c-13 -6 -39 -21 -57 -34 -17 -14 -36 -25 -42 -25 -13 0
-34 -38 -39 -70 -2 -13 -12 -51 -23 -83 l-20 -58 39 -44 c21 -24 53 -71 71
-104 17 -33 49 -82 71 -110 22 -27 56 -76 76 -108 20 -32 67 -89 105 -128 37
-38 72 -82 78 -96 5 -15 7 -60 4 -101 -4 -58 -2 -77 8 -84 24 -14 140 -8 252
15 117 23 182 27 192 11 5 -8 34 -203 35 -233 0 -4 39 -7 88 -6 48 1 93 0 100
-2 14 -4 62 106 62 142 0 52 53 15 85 -60 18 -39 20 -197 5 -253 -15 -51 -55
-97 -107 -119 -24 -10 -43 -24 -43 -32 0 -7 13 -28 30 -47 16 -19 37 -61 46
-92 11 -40 23 -59 36 -64 26 -8 237 97 291 144 22 19 52 38 67 43 27 10 28 12
23 69 -5 52 -3 60 13 67 11 4 45 23 76 44 53 34 143 75 213 96 24 7 29 13 27
33 -9 70 -25 104 -68 143 -46 42 -94 123 -94 157 0 9 -6 23 -14 29 -28 24 -74
143 -115 301 -7 25 -14 53 -18 62 -6 21 20 33 122 54 43 9 85 26 111 43 31 23
63 33 138 46 95 16 176 49 184 74 2 6 0 11 -5 10 -22 -4 -32 4 -42 33 -10 29
-9 33 27 68 22 20 75 57 118 83 116 68 113 66 83 66 -31 1 -155 -77 -218 -137
-36 -34 -42 -46 -37 -67 3 -14 9 -36 12 -49 8 -33 -12 -42 -133 -62 -77 -13
-107 -22 -142 -47 -25 -17 -65 -34 -91 -38 -84 -13 -129 -29 -141 -50 -19 -36
61 -319 110 -388 11 -15 32 -57 46 -94 18 -44 39 -77 61 -95 32 -27 73 -101
74 -134 0 -11 -22 -24 -69 -43 -38 -14 -95 -42 -127 -61 -33 -20 -76 -45 -97
-56 -38 -19 -39 -20 -33 -66 4 -26 3 -51 -1 -57 -39 -50 -303 -200 -340 -193
-13 2 -20 17 -26 53 -6 37 -16 56 -40 77 l-32 28 25 20 c14 11 42 34 62 50 50
41 68 103 68 237 0 76 -4 113 -16 136 -17 33 -98 117 -112 117 -5 0 -9 -22
-10 -49 0 -31 -10 -68 -25 -98 l-25 -48 -83 0 -84 0 -2 40 c-2 22 -8 78 -14
124 l-11 84 -83 -7 c-45 -3 -135 -15 -200 -26 -152 -26 -165 -26 -166 3 0 12
-1 57 -2 99 l-2 76 -68 69 c-37 38 -92 107 -123 153 -30 47 -65 96 -78 110
-13 14 -46 63 -75 110 -29 47 -61 97 -72 111 l-20 25 20 73 c26 94 40 114 104
151 61 35 71 36 114 12 17 -9 50 -27 72 -40 37 -20 46 -21 81 -11 38 11 43 10
92 -21 199 -126 289 -170 348 -170 56 0 105 -29 175 -105 72 -78 122 -110 156
-100 11 4 43 29 69 55 48 48 50 49 77 35 42 -22 63 -19 33 5 -41 32 -69 25
-126 -31 -44 -43 -57 -51 -77 -45 -14 3 -66 46 -115 95 -94 93 -100 97 -222
119 -56 10 -176 71 -280 141 -90 61 -97 64 -122 46 -28 -19 -62 -19 -78 0 -20
24 -97 65 -122 64 -13 0 -34 -5 -48 -10z m1980 -389 c0 -5 -4 -10 -10 -10 -5
0 -10 5 -10 10 0 6 5 10 10 10 6 0 10 -4 10 -10z"/>
<path d="M11715 4924 c-6 -8 -23 -16 -40 -18 -26 -3 -30 -7 -30 -34 -1 -45
-17 -56 -93 -62 l-67 -5 3 -61 c4 -69 -13 -120 -52 -159 -25 -25 -14 -34 15
-12 35 26 59 94 59 163 l0 67 53 -6 c62 -8 68 -4 95 49 14 28 31 45 52 52 29
11 38 26 22 36 -4 2 -12 -2 -17 -10z"/>
<path d="M16946 4769 c-9 -45 -8 -49 11 -49 12 0 14 3 6 11 -7 7 -8 21 -3 40
5 16 5 29 1 29 -5 0 -11 -14 -15 -31z"/>
<path d="M16855 4750 c-9 -15 -1 -23 21 -18 15 3 16 4 1 16 -11 9 -17 10 -22
2z"/>
<path d="M16815 4740 c-19 -8 -19 -9 3 -9 12 -1 22 4 22 9 0 6 -1 10 -2 9 -2
0 -12 -4 -23 -9z"/>
<path d="M17015 4740 c-3 -5 -1 -10 4 -10 6 0 11 5 11 10 0 6 -2 10 -4 10 -3
0 -8 -4 -11 -10z"/>
<path d="M11741 4224 c0 -11 3 -14 6 -6 3 7 2 16 -1 19 -3 4 -6 -2 -5 -13z"/>
<path d="M11781 4104 c0 -11 3 -14 6 -6 3 7 2 16 -1 19 -3 4 -6 -2 -5 -13z"/>
<path d="M13010 4006 c0 -3 9 -10 20 -16 11 -6 20 -8 20 -6 0 3 -9 10 -20 16
-11 6 -20 8 -20 6z"/>
<path d="M13138 3943 c7 -3 16 -2 19 1 4 3 -2 6 -13 5 -11 0 -14 -3 -6 -6z"/>
<path d="M10638 3783 c12 -2 30 -2 40 0 9 3 -1 5 -23 4 -22 0 -30 -2 -17 -4z"/>
<path d="M16528 3773 c7 -3 16 -2 19 1 4 3 -2 6 -13 5 -11 0 -14 -3 -6 -6z"/>
<path d="M16667 3760 c3 -11 7 -20 9 -20 2 0 4 9 4 20 0 11 -4 20 -9 20 -5 0
-7 -9 -4 -20z"/>
<path d="M16417 3742 c-15 -16 -27 -32 -27 -38 0 -5 8 1 18 12 9 12 25 26 36
31 10 6 14 13 9 16 -6 4 -22 -6 -36 -21z"/>
<path d="M16905 3724 c-12 -9 -30 -13 -45 -9 -19 5 -22 4 -13 -6 16 -16 83 -3
83 16 0 18 0 18 -25 -1z"/>
<path d="M16458 3693 c7 -3 16 -2 19 1 4 3 -2 6 -13 5 -11 0 -14 -3 -6 -6z"/>
<path d="M11081 3604 c0 -11 3 -14 6 -6 3 7 2 16 -1 19 -3 4 -6 -2 -5 -13z"/>
<path d="M15794 3569 c-9 -16 6 -71 33 -117 27 -48 70 -72 125 -72 18 0 50 -3
71 -6 35 -6 37 -8 37 -45 0 -62 -30 -260 -45 -295 -11 -26 -22 -35 -57 -44
-24 -6 -95 -26 -158 -45 -108 -33 -123 -35 -238 -33 -121 3 -124 2 -144 -22
-24 -29 -19 -81 12 -132 28 -46 25 -72 -12 -107 -41 -38 -188 -115 -260 -136
-54 -15 -60 -15 -143 5 -86 21 -86 21 -118 1 -36 -21 -73 -20 -134 4 -21 8
-79 19 -130 24 -95 8 -128 24 -187 89 -10 12 -42 26 -75 33 -31 6 -70 20 -87
30 -64 39 -160 162 -149 192 4 8 24 22 45 32 39 18 70 52 70 78 0 7 -11 23
-25 35 -28 24 -30 39 -13 77 15 33 2 86 -53 210 -23 52 -36 91 -29 93 5 2 7 8
4 13 -7 12 -34 -8 -34 -26 0 -7 20 -55 44 -106 58 -124 63 -150 37 -195 -12
-19 -21 -37 -21 -39 0 -3 13 -11 29 -20 62 -31 45 -82 -35 -110 -60 -20 -58
-54 7 -141 73 -98 129 -137 229 -158 14 -3 45 -24 70 -46 56 -52 78 -60 163
-66 37 -2 103 -13 145 -24 80 -21 106 -20 140 1 17 10 33 10 91 -4 85 -21 139
-16 231 21 83 32 127 57 189 107 66 51 71 76 31 151 -32 60 -32 88 -1 112 12
10 43 12 131 7 109 -6 119 -5 205 23 50 16 115 35 145 42 93 21 98 24 114 82
8 29 23 111 32 182 17 129 17 129 -4 146 -12 10 -48 19 -87 23 -36 4 -80 14
-96 24 -34 20 -69 79 -69 116 0 22 2 23 68 20 54 -3 63 -2 48 8 -23 14 -134
20 -142 8z"/>
<path d="M12035 3530 c-3 -5 -2 -10 4 -10 5 0 13 5 16 10 3 6 2 10 -4 10 -5 0
-13 -4 -16 -10z"/>
<path d="M11950 3500 c-9 -6 -10 -10 -3 -10 6 0 15 5 18 10 8 12 4 12 -15 0z"/>
<path d="M11790 3440 c-8 -5 -10 -10 -5 -10 6 0 17 5 25 10 8 5 11 10 5 10 -5
0 -17 -5 -25 -10z"/>
<path d="M11597 3188 c-26 -17 -46 -32 -43 -35 2 -3 28 11 58 31 64 44 52 47
-15 4z"/>
<path d="M11410 3095 c-14 -8 -20 -14 -15 -14 6 0 21 6 35 14 14 8 21 14 15
14 -5 0 -21 -6 -35 -14z"/>
<path d="M11358 3073 c7 -3 16 -2 19 1 4 3 -2 6 -13 5 -11 0 -14 -3 -6 -6z"/>
<path d="M14390 2570 c20 -13 33 -13 25 0 -3 6 -14 10 -23 10 -15 0 -15 -2 -2
-10z"/>
<path d="M14620 2470 c0 -5 9 -14 19 -20 26 -13 155 -40 189 -39 15 0 -4 7
-43 14 -38 7 -91 22 -117 34 -27 11 -48 16 -48 11z"/>
<path d="M14948 2393 c12 -2 32 -2 45 0 12 2 2 4 -23 4 -25 0 -35 -2 -22 -4z"/>
</g>
</svg>
